<svg width="149" height="149" xmlns="http://www.w3.org/2000/svg" xmlns:xlink="http://www.w3.org/1999/xlink" overflow="hidden"><defs><clipPath id="clip0"><rect x="640" y="277" width="149" height="149"/></clipPath></defs><g clip-path="url(#clip0)" transform="translate(-640 -277)"><path d="M774.721 377.42C776.428 384.559 769.133 391.544 761.994 388.595 755.941 386.422 753.612 379.438 757.803 373.384 767.271 360.813 760.286 341.101 744.61 334.272 751.75 347.775 740.885 360.036 734.522 365.314 728.314 370.435 724.123 375.868 722.881 378.972 716.518 394.337 725.985 409.082 732.504 412.652 729.555 405.978 726.917 393.406 738.402 381.455 738.402 381.455 735.143 394.182 742.282 402.874 749.422 411.721 749.422 418.24 749.422 418.24 761.063 418.24 771.461 411.255 775.807 400.546 778.911 393.872 779.222 383.473 774.721 377.42Z" fill="#8D094E"/><path d="M766.34 287.244C765.098 286.002 763.235 286.002 761.994 287.244L756.251 292.986 755.009 291.745C750.198 286.933 742.282 286.933 737.471 291.745L729.71 299.505C724.899 304.317 724.899 312.232 729.71 317.044L730.952 318.285 727.227 322.01 725.985 320.769C721.174 315.957 713.258 315.957 708.447 320.769 708.447 320.769 708.447 320.769 708.447 320.769L700.686 328.529C695.875 333.341 695.875 341.256 700.686 346.068 700.686 346.068 700.686 346.068 700.686 346.068L701.928 347.309 692.46 356.777 692.46 352.276C692.46 350.569 691.064 349.172 689.356 349.172 687.649 349.172 686.252 350.569 686.252 352.276L686.252 362.985 674.611 374.626 674.611 374.626 666.385 382.697 666.385 373.229C666.385 371.522 664.989 370.125 663.281 370.125 661.574 370.125 660.177 371.522 660.177 373.229L660.177 388.905 652.417 396.666C651.175 397.907 651.175 399.77 652.417 401.011 653.658 402.253 655.521 402.253 656.763 401.011 656.763 401.011 656.763 401.011 656.763 401.011L665.299 392.475 665.299 392.475 677.871 379.903 695.565 379.903C697.272 379.903 698.669 378.506 698.669 376.799 698.669 375.092 697.272 373.695 695.565 373.695L684.079 373.695 691.219 366.555 691.219 366.555 706.119 351.81 707.36 353.052C712.172 357.864 720.088 357.864 724.899 353.052L732.659 345.292C737.471 340.48 737.471 332.565 732.659 327.753L731.573 326.356 735.143 322.786 736.384 324.028 736.384 324.028C741.196 328.84 749.111 328.84 753.923 324.028L761.683 316.268C766.495 311.456 766.495 303.541 761.683 298.729L760.442 297.487 766.184 291.745C767.581 290.348 767.581 288.485 766.34 287.244 766.34 287.244 766.34 287.244 766.34 287.244ZM721.64 325.115 722.881 326.356C721.95 327.753 722.571 329.771 723.968 330.547 724.899 331.168 726.141 331.168 727.072 330.547L728.314 331.789C729.555 333.03 730.176 334.582 730.176 336.29 727.382 334.737 724.899 332.875 722.726 330.547 720.553 328.374 718.535 325.891 716.983 323.097 716.983 323.097 717.139 323.097 717.139 323.097 718.846 323.252 720.553 324.028 721.64 325.115ZM720.708 348.396C718.225 350.724 714.345 350.724 711.861 348.396L705.188 341.722C702.704 339.239 702.704 335.358 705.188 332.875 705.188 332.875 705.188 332.875 705.188 332.875L711.706 326.356C713.569 329.616 715.742 332.565 718.38 335.203 721.019 337.842 723.968 340.17 727.227 341.877L720.708 348.396ZM750.508 296.246 751.75 297.487C750.819 298.884 751.44 300.902 752.836 301.678 753.768 302.299 755.009 302.299 755.941 301.678L757.182 302.92C758.424 304.161 759.045 305.714 759.045 307.421 756.251 305.869 753.768 304.006 751.595 301.678 749.422 299.505 747.404 297.022 746.007 294.228 747.715 294.383 749.422 295.004 750.508 296.246ZM749.577 319.527C747.094 322.01 743.214 322.01 740.73 319.527L734.056 312.698C731.573 310.215 731.573 306.334 734.056 303.851L740.575 297.332C742.438 300.592 744.61 303.541 747.249 306.179 749.888 308.818 752.836 311.146 756.096 312.853L749.577 319.527Z" fill="#8D094E"/></g></svg>