<?xml version="1.0" standalone="no"?>
<!DOCTYPE svg PUBLIC "-//W3C//DTD SVG 1.0//EN" "http://www.w3.org/TR/2001/REC-SVG-20010904/DTD/svg10.dtd">
<svg xmlns="http://www.w3.org/2000/svg" xmlns:xlink="http://www.w3.org/1999/xlink" id="body_1" width="624" height="375">

<g transform="matrix(0.74946606 0 0 0.74946606 0.14493915 -0)">
	<g transform="matrix(1 0 0 1 -183.89697 -199.82188)">
	</g>
    <path transform="matrix(1 0 0 1 -183.89697 -199.82188)"  d="M227.31664 699.06C 227.26097 698.8149 221.87663 674.26215 232.87279 653.86957C 243.86888 633.4779 267.34106 624.4848 267.5769 624.39594L267.5769 624.39594L268.64966 623.9936L268.90308 625.11176C 268.95874 625.3569 274.34302 649.9096 263.34692 670.3022C 252.35132 690.69385 228.87866 699.68695 228.64282 699.7758L228.64282 699.7758L227.56956 700.17816L227.31664 699.06zM267.17844 626.72217C 262.47678 628.7446 243.92062 637.5962 234.63351 654.81885C 225.34543 672.04346 228.14767 692.4126 229.04123 697.4497C 233.74094 695.4321 252.28976 686.59424 261.58615 669.353C 270.87375 652.1293 268.07248 631.7621 267.17844 626.7221z" stroke="none" fill="#F1F1F1" fill-rule="nonzero" />
	<g transform="matrix(1 0 0 1 -183.89697 -199.82188)">
	</g>
    <path transform="matrix(1 0 0 1 -183.89697 -199.82188)"  d="M254.94373 663.14905C 235.18317 675.03766 227.57272 698.65173 227.57272 698.65173C 227.57272 698.65173 252.00052 702.99054 271.76108 691.1019C 291.52164 679.2133 299.13208 655.59924 299.13208 655.59924C 299.13208 655.59924 274.70428 651.26044 254.94373 663.14905z" stroke="none" fill="#F1F1F1" fill-rule="nonzero" />
	<g transform="matrix(1 0 0 1 -183.89697 -199.82188)">
	</g>
    <path transform="matrix(1 0 0 1 -183.89697 -199.82188)"  d="M554.1926 472.56442C 554.8025 469.4157 553.9863 466.15857 551.9638 463.66946C 549.9412 461.18036 546.92004 459.71497 543.71313 459.6676L543.71313 459.6676L534.5623 436.65515L519.22144 438.80527L532.6006 471.1218C 532.8842 476.63556 537.2471 481.06573 542.7558 481.43378C 548.2646 481.80182 553.178 477.9914 554.1926 472.5644L554.1926 472.5644L554.1926 472.56442z" stroke="none" fill="#9F616A" fill-rule="nonzero" />
	<g transform="matrix(1 0 0 1 -183.89697 -199.82188)">
	</g>
    <path transform="matrix(1 0 0 1 -183.89697 -199.82188)"  d="M525.9296 464.47855L521.17615 453.14343L491.55466 396.7586L493.16528 292.42633L493.47452 292.38535C 512.4285 289.8811 525.2527 377.21393 525.7895 380.93317L525.7895 380.93317L544.505 444.94125L548.9602 459.04974L525.9296 464.47855z" stroke="none" fill="#8D094E" fill-rule="nonzero" />
	<g>
	</g>
    <path d="M296.518 484.658L310.92 484.657L317.771 429.106L296.515 429.107L296.518 484.658L296.518 484.658" stroke="none" fill="#9F616A" fill-rule="nonzero" />
	<g transform="matrix(1 0 0 1 -183.89697 -199.82188)">
	</g>
    <path transform="matrix(1 0 0 1 -183.89697 -199.82188)"  d="M476.741 679.7777L505.104 679.77655L505.10516 679.77655C 515.0874 679.7771 523.17957 687.8691 523.1803 697.8514L523.1803 697.8514L523.1803 698.4387L476.74182 698.4404L476.741 679.7777z" stroke="none" fill="#2F2E41" fill-rule="nonzero" />
	<g>
	</g>
    <path d="M164.095 462.715L175.912 470.949L213.294 429.291L195.854 417.138L164.095 462.715L164.095 462.715" stroke="none" fill="#9F616A" fill-rule="nonzero" />
	<g transform="matrix(1 0 0 1 -183.89697 -199.82188)">
	</g>
    <path transform="matrix(1 0 0 1 -183.89697 -199.82188)"  d="M347.66666 656.57886L370.9372 672.7944L370.93814 672.79504C 379.12762 678.50287 381.1401 689.7685 375.4333 697.9586L375.4333 697.9586L375.09747 698.4405L336.997 671.89087L347.66666 656.57886z" stroke="none" fill="#2F2E41" fill-rule="nonzero" />
	<g transform="matrix(1 0 0 1 -183.89697 -199.82188)">
	</g>
    <path transform="matrix(1 0 0 1 -183.89697 -199.82188)"  d="M472.49954 671.4223L471.8772 567.2122L462.81534 501.686L445.9204 559.3103L445.88757 559.3576L384.66257 648.24274L360.83932 636.17224L360.96985 635.8621C 362.42575 632.3993 396.732 551.06854 405.9532 551.06854C 407.5879 551.18304 409.1743 550.48596 410.19556 549.20435C 412.902 545.59033 410.698 537.9215 410.67538 537.84454C 408.0357 526.8987 414.6728 523.1709 415.9947 522.5485L415.9947 522.5485L419.55023 449.15152L419.9188 449.17694L516.30835 455.93802L512.26447 547.7039L503.56567 667.9354L503.26688 667.96936L472.49954 671.4223z" stroke="none" fill="#2F2E41" fill-rule="nonzero" />
	<g transform="matrix(1 0 0 1 -183.89697 -199.82188)">
	</g>
    <path transform="matrix(1 0 0 1 -183.89697 -199.82188)"  d="M517.781 472.20178L517.3642 472.16788L413.69965 463.8117L413.95554 429.5118L419.02936 339.95346L419.05814 339.8913L439.72092 295.03265L454.36823 288.40015L475.73846 287.27554L475.79056 287.2886L495.2934 292.12048L515.5814 437.75922L517.781 472.20178z" stroke="none" fill="#8D094E" fill-rule="nonzero" />
    <path transform="matrix(0.87745404 -0.47966066 0.47966066 0.87745404 -247.58414 54.55847)"  d="M493.2891 251.83011C 493.28912 244.29317 490.6244 237.85997 485.29495 232.53053C 479.9655 227.2011 473.53232 224.53638 465.99536 224.53638C 458.45844 224.53638 452.02524 227.2011 446.69577 232.53053C 441.36636 237.85997 438.70166 244.29317 438.70163 251.83011C 438.70166 259.36707 441.36636 265.80026 446.69577 271.1297C 452.02524 276.45914 458.45844 279.12384 465.99536 279.12384C 473.53232 279.12384 479.9655 276.45914 485.29495 271.1297C 490.6244 265.80026 493.28912 259.36707 493.2891 251.83011" stroke="none" fill="#9F616A" fill-rule="nonzero" />
	<g transform="matrix(0.87745404 -0.47966066 0.47966066 0.87745404 -247.58414 54.55847)">
	</g>
	<g transform="matrix(1 0 0 1 -183.89697 -199.82188)">
	</g>
    <path transform="matrix(1 0 0 1 -183.89697 -199.82188)"  d="M438.54633 258.68143L438.54633 248.04712C 438.54633 248.04712 429.97034 237.94676 439.40393 235.40248C 439.40393 235.40248 441.9767 209.95963 464.27417 221.83296C 464.27417 221.83296 495.14755 216.74438 491.71716 234.5544C 491.71716 234.5544 499.43552 229.90479 496.86273 241.77812L496.86273 241.77812L491.8869 260.904C 491.8869 260.904 494.28995 248.26999 486.57162 246.57375L486.57162 246.57375L482.28363 244.02945C 482.28363 244.02945 470.2773 255.90279 452.26782 241.48517C 452.26782 241.48517 444.54947 239.643 445.40707 247.27586C 446.26468 254.90872 438.54633 258.68143 438.54633 258.68143z" stroke="none" fill="#2F2E41" fill-rule="nonzero" />
	<g transform="matrix(1 0 0 1 -183.89697 -199.82188)">
	</g>
    <path transform="matrix(1 0 0 1 -183.89697 -199.82188)"  d="M463.1536 446.5875C 463.1885 443.38046 461.80112 440.32266 459.36472 438.2369C 456.9283 436.15118 453.69318 435.25174 450.52985 435.7806L450.52985 435.7806L437.39792 414.78387L422.69193 419.65207L441.65323 449.04306C 442.9217 454.41644 448.00873 457.99182 453.49414 457.36533C 458.97955 456.73883 463.12943 452.10852 463.15366 446.5875L463.15366 446.5875L463.1536 446.5875z" stroke="none" fill="#9F616A" fill-rule="nonzero" />
	<g transform="matrix(1 0 0 1 -183.89697 -199.82188)">
	</g>
    <path transform="matrix(1 0 0 1 -183.89697 -199.82188)"  d="M429.23633 439.96884L405.47876 391.73425L405.49976 391.617C 405.5955 391.08295 415.15875 337.98328 422.4729 318.46545C 429.83337 298.824 439.90842 294.88046 440.33368 294.7222L440.33368 294.7222L440.5463 294.64307L449.58008 303.3083L437.06613 386.8353L450.55515 427.1192L429.23633 439.96884z" stroke="none" fill="#8D094E" fill-rule="nonzero" />
	<g>
	</g>
    <path d="M786.20605 0L832.20605 0L832.20605 46L786.20605 46z" stroke="none" fill="#F1F1F1" fill-rule="nonzero" />
	<g>
	</g>
    <path d="M426.20605 179L472.20605 179L472.20605 225L426.20605 225z" stroke="none" fill="#F1F1F1" fill-rule="nonzero" />
	<g transform="matrix(1 0 0 1 -183.89697 -199.82188)">
	</g>
    <path transform="matrix(1 0 0 1 -183.89697 -199.82188)"  d="M635.9218 404.66452L999.59656 404.66452L999.59656 220.55582L635.9218 220.55582L635.9218 404.66452z" stroke="none" fill="#FFFFFF" fill-rule="nonzero" />
	<g transform="matrix(1 0 0 1 -183.89697 -199.82188)">
	</g>
    <path transform="matrix(1 0 0 1 -183.89697 -199.82188)"  d="M1002.59656 407.66458L632.92175 407.66458L632.92175 217.5557L1002.59656 217.5557L1002.59656 407.66458zM638.92175 401.66458L996.59656 401.66458L996.59656 223.5557L638.92175 223.5557z" stroke="none" fill="#E5E5E5" fill-rule="nonzero" />
	<g>
	</g>
    <path d="M495.67776 85.31585L775.48425 85.31585L775.48425 94.59501L495.67776 94.59501z" stroke="none" fill="#E5E5E5" fill-rule="nonzero" />
	<g>
	</g>
    <path d="M495.67776 107.81893L775.48425 107.81893L775.48425 117.09809L495.67776 117.09809z" stroke="none" fill="#E5E5E5" fill-rule="nonzero" />
	<g>
	</g>
    <path d="M723.48425 141.04543L775.48425 141.04543L775.48425 149.0981L723.48425 149.0981z" stroke="none" fill="#8D094E" fill-rule="nonzero" />
	<g transform="matrix(1 0 0 1 -183.89697 -199.82188)">
	</g>
    <path transform="matrix(1 0 0 1 -183.89697 -199.82188)"  d="M565.897 700.13776L184.89697 700.13776C 184.5397 700.13776 184.20958 699.94714 184.03094 699.63776C 183.85231 699.32837 183.85231 698.94714 184.03094 698.63776C 184.20958 698.32837 184.5397 698.13776 184.89697 698.13776L184.89697 698.13776L565.897 698.13776C 566.4493 698.13776 566.897 698.58545 566.897 699.13776C 566.897 699.69006 566.4493 700.13776 565.897 700.13776z" stroke="none" fill="#CBCBCB" fill-rule="nonzero" />
</g>
</svg>