<?xml version="1.0" standalone="no"?>
<!DOCTYPE svg PUBLIC "-//W3C//DTD SVG 1.0//EN" "http://www.w3.org/TR/2001/REC-SVG-20010904/DTD/svg10.dtd">
<svg xmlns="http://www.w3.org/2000/svg" xmlns:xlink="http://www.w3.org/1999/xlink" id="body_1" width="696" height="323">

<g transform="matrix(0.7501415 0 0 0.7501415 -0 0.020248417)">
	<g transform="matrix(1 0 0 1 -136.0875 -234.73425)">
	</g>
    <path transform="matrix(1 0 0 1 -136.0875 -234.73425)"  d="M883.77356 664.2859L530.1845 664.2859L530.1845 456.80008L528.55927 455.75516L585.9543 399.8533C 614.9654 371.49716 653.83716 355.4881 694.4035 355.18924L694.4035 355.18924L799.9128 354.22488L800.0644 354.40506L884.0192 454.283L883.77167 457.04813L883.77356 664.2859z" stroke="none" fill="#F2F2F2" fill-rule="nonzero" />
	<g>
	</g>
    <path d="M460.6924 158.6422L672.16406 158.6422L672.16406 160.6422L460.6924 160.6422z" stroke="none" fill="#FFFFFF" fill-rule="nonzero" />
	<g>
	</g>
    <path d="M439.6924 179.6422L651.16406 179.6422L651.16406 181.6422L439.6924 181.6422z" stroke="none" fill="#FFFFFF" fill-rule="nonzero" />
	<g>
	</g>
    <path d="M735.65 317.13147L774.09 317.13147L774.09 351.10846L735.65 351.10846z" stroke="none" fill="#FFFFFF" fill-rule="nonzero" />
	<g>
	</g>
    <path d="M735.65 258.32248L774.09 258.32248L774.09 291.76047L735.65 291.76047z" stroke="none" fill="#FFFFFF" fill-rule="nonzero" />
	<g>
	</g>
    <path d="M690.18365 122.85463L724.6536 122.85463L724.6536 242.15462L690.18365 242.15462z" stroke="none" fill="#F2F2F2" fill-rule="nonzero" />
	<g transform="matrix(1 0 0 1 -136.0875 -234.73425)">
	</g>
    <path transform="matrix(1 0 0 1 -136.0875 -234.73425)"  d="M883.77356 664.2849L694.5495 664.2849L694.5495 526.7864C 694.55963 494.99088 705.89343 464.23834 726.5195 440.04077L726.5195 440.04077L799.7685 354.16476L883.7736 454.17062L883.77356 664.2849z" stroke="none" fill="#E6E6E6" fill-rule="nonzero" />
	<g>
	</g>
    <path d="M647.2988 326.14746L685.73883 326.14746L685.73883 360.12445L647.2988 360.12445z" stroke="none" fill="#FFFFFF" fill-rule="nonzero" />
	<g>
	</g>
    <path d="M647.2988 267.33746L685.73883 267.33746L685.73883 300.77545L647.2988 300.77545z" stroke="none" fill="#FFFFFF" fill-rule="nonzero" />
	<g>
	</g>
    <path d="M463.685 317.13147L502.125 317.13147L502.125 351.10846L463.685 351.10846z" stroke="none" fill="#FFFFFF" fill-rule="nonzero" />
	<g>
	</g>
    <path d="M463.685 258.32248L502.125 258.32248L502.125 291.76047L463.685 291.76047z" stroke="none" fill="#FFFFFF" fill-rule="nonzero" />
	<g>
	</g>
    <path d="M407.1336 57.40461L448.96368 57.40461L448.96368 202.20465L407.1336 202.20465z" stroke="none" fill="#F2F2F2" fill-rule="nonzero" />
	<g transform="matrix(1 0 0 1 -136.0875 -234.73425)">
	</g>
    <path transform="matrix(1 0 0 1 -136.0875 -234.73425)"  d="M612.90155 664.284L183.9484 664.284L183.9484 412.50418L182.04039 411.27567L182.49059 410.83768L260.83972 334.52274C 290.1137 305.9077 329.33902 289.75238 370.27432 289.451L370.27432 289.451L511.16833 288.16388L511.3202 288.34406L613.19183 409.53494L612.8996 412.84744L612.90155 664.284z" stroke="none" fill="#F2F2F2" fill-rule="nonzero" />
	<g transform="matrix(1 0 0 1 -136.0875 -234.73425)">
	</g>
    <path transform="matrix(1 0 0 1 -136.0875 -234.73425)"  d="M612.90155 664.284L383.44354 664.284L383.44354 479.40652C 383.4521 452.51984 393.0362 426.51517 410.47797 406.05353L410.47797 406.05353L511.0463 288.1487L612.90155 409.40164L612.90155 664.284z" stroke="none" fill="#E6E6E6" fill-rule="nonzero" />
	<g>
	</g>
    <path d="M363.9663 304.1515L401.07132 304.1515L401.07132 336.9485L363.9663 336.9485z" stroke="none" fill="#FFFFFF" fill-rule="nonzero" />
	<g>
	</g>
    <path d="M363.9663 247.15147L401.07132 247.15147L401.07132 279.9485L363.9663 279.9485z" stroke="none" fill="#FFFFFF" fill-rule="nonzero" />
	<g>
	</g>
    <path d="M132.21701 293.20746L178.87401 293.20746L178.87401 334.44647L132.21701 334.44647z" stroke="none" fill="#FFFFFF" fill-rule="nonzero" />
	<g>
	</g>
    <path d="M132.21701 221.82748L178.87401 221.82748L178.87401 262.41248L132.21701 262.41248z" stroke="none" fill="#FFFFFF" fill-rule="nonzero" />
	<g>
	</g>
    <path d="M0 428.03046L927.825 428.03046L927.825 430.31546L0 430.31546z" stroke="none" fill="#3F3D56" fill-rule="nonzero" />
	<g>
	</g>
    <path d="M106.013 318.16147C 106.013 280.69006 120.90043 250.31348 139.265 250.31348C 157.62958 250.31348 172.517 280.69006 172.517 318.16147C 172.517 355.63287 157.62958 386.00946 139.265 386.00946C 120.90043 386.00946 106.013 355.63287 106.013 318.16147" stroke="none" fill="#3F3D56" fill-rule="nonzero" />
	<g transform="matrix(1 0 0 1 -136.0875 -234.73425)">
	</g>
    <path transform="matrix(1 0 0 1 -136.0875 -234.73425)"  d="M278.4235 663.9517C 265.1055 584.0517 278.2895 504.4317 278.4235 503.63773L278.4235 503.63773L281.0145 504.07672C 280.8805 504.86673 267.7725 584.0647 281.0145 663.52075L281.0145 663.52075L278.4235 663.9517z" stroke="none" fill="#8D094E" fill-rule="nonzero" />
	<g transform="matrix(0.88178134 -0.47165844 0.47165844 0.88178134 -360.01398 -33.12933)">
	</g>
    <path d="M138.46802 319.65247L168.5368 303.5689L169.7763 305.88623L139.70752 321.9698z" stroke="none" fill="#8D094E" fill-rule="nonzero" />
	<g transform="matrix(0.47190458 -0.8816497 0.8816497 0.47190458 -489.40112 286.54123)">
	</g>
    <path d="M106.734985 313.94238L107.97516 311.62543L138.04028 327.71783L136.80017 330.0348z" stroke="none" fill="#8D094E" fill-rule="nonzero" />
	<g>
	</g>
    <path d="M10.759003 270.41144C 10.759003 216.33447 32.243958 172.49643 58.747 172.49643C 85.250046 172.49643 106.735 216.33447 106.735 270.41144C 106.735 324.4884 85.250046 368.32645 58.747 368.32645C 32.243958 368.32645 10.759003 324.4884 10.759003 270.41144" stroke="none" fill="#8D094E" fill-rule="nonzero" />
	<g transform="matrix(1 0 0 1 -136.0875 -234.73425)">
	</g>
    <path transform="matrix(1 0 0 1 -136.0875 -234.73425)"  d="M200.17949 665.2657C 180.98549 550.1037 199.98549 435.3607 200.17949 434.2147L200.17949 434.2147L202.09048 434.5387C 201.89648 435.6817 182.95248 550.1157 202.09048 664.9477L202.09048 664.9477L200.17949 665.2657z" stroke="none" fill="#3F3D56" fill-rule="nonzero" />
	<g transform="matrix(0.88178134 -0.47165844 0.47165844 0.88178134 -345.10608 -73.92688)">
	</g>
    <path d="M58.03601 273.38245L101.43112 250.17072L102.34567 251.88046L58.95056 275.0922z" stroke="none" fill="#3F3D56" fill-rule="nonzero" />
	<g transform="matrix(0.47190458 -0.8816497 0.8816497 0.47190458 -494.82263 184.37099)">
	</g>
    <path d="M12.239014 263.5134L13.154053 261.8039L56.542664 285.02774L55.627686 286.73724z" stroke="none" fill="#3F3D56" fill-rule="nonzero" />
	<g transform="matrix(1 0 0 1 -136.0875 -234.73425)">
	</g>
    <path transform="matrix(1 0 0 1 -136.0875 -234.73425)"  d="M797.90955 308.06674L808.4285 299.65274C 800.25653 298.75275 796.8985 303.20773 795.5285 306.73575C 789.14453 304.08475 782.1935 307.55875 782.1935 307.55875L782.1935 307.55875L803.2405 315.19974C 802.1789 312.36356 800.3307 309.88882 797.9125 308.06573L797.9125 308.06573L797.90955 308.06674z" stroke="none" fill="#3F3D56" fill-rule="nonzero" />
	<g transform="matrix(1 0 0 1 -136.0875 -234.73425)">
	</g>
    <path transform="matrix(1 0 0 1 -136.0875 -234.73425)"  d="M607.81445 243.26575L618.33344 234.85175C 610.16144 233.95175 606.8034 238.40674 605.4334 241.93475C 599.04944 239.28375 592.0984 242.75775 592.0984 242.75775L592.0984 242.75775L613.1454 250.39876C 612.08276 247.56258 610.2335 245.08817 607.81445 243.26575z" stroke="none" fill="#3F3D56" fill-rule="nonzero" />
	<g transform="matrix(1 0 0 1 -136.0875 -234.73425)">
	</g>
    <path transform="matrix(1 0 0 1 -136.0875 -234.73425)"  d="M872.5755 258.93173L883.0945 250.51773C 874.9225 249.61774 871.56445 254.07272 870.19446 257.60074C 863.8105 254.94974 856.85944 258.42374 856.85944 258.42374L856.85944 258.42374L877.90643 266.06473C 876.8448 263.22855 874.9966 260.7538 872.5784 258.93073L872.5784 258.93073L872.5755 258.93173z" stroke="none" fill="#3F3D56" fill-rule="nonzero" />
	<g transform="matrix(1 0 0 1 -136.0875 -234.73425)">
	</g>
    <path transform="matrix(1 0 0 1 -136.0875 -234.73425)"  d="M425.4115 649.5457C 422.61438 649.54565 419.8667 650.28314 417.4455 651.6837C 412.4226 647.14355 405.19583 645.9901 399.00925 648.7412C 392.82263 651.4923 388.8386 657.63104 388.8455 664.40173L388.8455 664.40173L441.35248 664.40173C 440.75858 656.03534 433.79993 649.55035 425.41248 649.54675L425.41248 649.54675L425.4115 649.5457z" stroke="none" fill="#3F3D56" fill-rule="nonzero" />
	<g transform="matrix(1 0 0 1 -136.0875 -234.73425)">
	</g>
    <path transform="matrix(1 0 0 1 -136.0875 -234.73425)"  d="M698.51953 649.5457C 695.72235 649.54565 692.9747 650.2831 690.5535 651.6837C 685.53064 647.14355 678.3039 645.9901 672.1173 648.7412C 665.9307 651.4923 661.94666 657.63104 661.95355 664.40173L661.95355 664.40173L714.4606 664.40173C 713.8671 656.03455 706.9077 649.5488 698.51953 649.5457z" stroke="none" fill="#3F3D56" fill-rule="nonzero" />
	<g transform="matrix(1 0 0 1 -136.0875 -234.73425)">
	</g>
    <path transform="matrix(1 0 0 1 -136.0875 -234.73425)"  d="M563.9895 638.08374L489.4035 638.08374L489.4035 640.48975L501.0355 640.48975L501.0355 663.34674L503.4415 663.34674L503.4415 640.48975L548.7475 640.48975L548.7475 663.34674L551.1535 663.34674L551.1535 640.48975L563.9885 640.48975L563.9895 638.08374z" stroke="none" fill="#3F3D56" fill-rule="nonzero" />
	<g>
	</g>
    <path d="M353.463 396.1515L428.049 396.1515L428.049 398.5575L353.463 398.5575z" stroke="none" fill="#3F3D56" fill-rule="nonzero" />
	<g>
	</g>
    <path d="M353.463 390.13647L428.049 390.13647L428.049 392.54248L353.463 392.54248z" stroke="none" fill="#3F3D56" fill-rule="nonzero" />
	<g>
	</g>
    <path d="M844.7 333.37448C 844.7 300.56158 857.7366 273.9615 873.818 273.9615C 889.8994 273.9615 902.936 300.56158 902.936 333.37448C 902.936 366.18738 889.8994 392.78748 873.818 392.78748C 857.7366 392.78748 844.7 366.18738 844.7 333.37448" stroke="none" fill="#E6E6E6" fill-rule="nonzero" />
	<g transform="matrix(1 0 0 1 -136.0875 -234.73425)">
	</g>
    <path transform="matrix(1 0 0 1 -136.0875 -234.73425)"  d="M1006.6625 665.26575C 1018.30945 595.38776 1006.7795 525.76575 1006.6625 525.06573L1006.6625 525.06573L1005.5025 525.26575C 1005.6195 525.95874 1017.1155 595.39575 1005.5025 665.0737L1005.5025 665.0737L1006.6625 665.26575z" stroke="none" fill="#3F3D56" fill-rule="nonzero" />
	<g transform="matrix(0.471833 -0.88168794 0.88168794 0.471833 -106.29034 941.77216)">
	</g>
    <path d="M847.3566 322.12012L847.9122 321.08203L874.2496 335.17645L873.69403 336.21454z" stroke="none" fill="#3F3D56" fill-rule="nonzero" />
	<g transform="matrix(0.8816879 -0.47183308 0.47183308 0.8816879 -284.0109 316.2385)">
	</g>
    <path d="M875.1544 342.2422L901.49194 328.1478L902.0475 329.18594L875.7101 343.28033z" stroke="none" fill="#3F3D56" fill-rule="nonzero" />
	<g transform="matrix(1 0 0 1 -136.0875 -234.73425)">
	</g>
    <path transform="matrix(1 0 0 1 -136.0875 -234.73425)"  d="M974.80444 639.34674C 974.2667 639.60223 973.6366 639.57025 973.12744 639.2617C 972.99945 639.1837 972.89545 639.3917 973.02747 639.4697C 973.591 639.8085 974.28577 639.84595 974.88245 639.5697C 974.9417 639.54755 974.97394 639.4835 974.9564 639.4227C 974.9474 639.393 974.92694 639.3681 974.8996 639.35345C 974.8722 639.33887 974.84015 639.3357 974.8105 639.3447L974.8105 639.3447L974.80444 639.34674z" stroke="none" fill="#FFFFFF" fill-rule="nonzero" />
	<g transform="matrix(1 0 0 1 -136.0875 -234.73425)">
	</g>
    <path transform="matrix(1 0 0 1 -136.0875 -234.73425)"  d="M938.01154 617.3107C 938.7098 616.9136 939.1962 616.2276 939.3402 615.4374C 939.48413 614.6471 939.2708 613.8337 938.7575 613.21576L938.7575 613.21576L941.9135 588.6938L936.0135 588.9418L934.76855 612.9678C 933.7651 613.9198 933.6326 615.472 934.4602 616.5803C 935.2878 617.6886 936.81366 618.0025 938.01154 617.3108L938.01154 617.3108L938.01154 617.3107z" stroke="none" fill="#FFB6B6" fill-rule="nonzero" />
	<g transform="matrix(1 0 0 1 -136.0875 -234.73425)">
	</g>
    <path transform="matrix(1 0 0 1 -136.0875 -234.73425)"  d="M965.4595 588.69073L966.21747 601.22876L961.10046 614.74274L958.65546 611.12775L960.9855 597.9808L960.3395 589.56976L965.4595 588.69073z" stroke="none" fill="#FFB6B6" fill-rule="nonzero" />
	<g transform="matrix(1 0 0 1 -136.0875 -234.73425)">
	</g>
    <path transform="matrix(1 0 0 1 -136.0875 -234.73425)"  d="M958.1334 627.34875L958.7614 659.57874L956.0064 660.00574L950.0514 627.01874L958.1334 627.34875z" stroke="none" fill="#FFB6B6" fill-rule="nonzero" />
	<g transform="matrix(1 0 0 1 -136.0875 -234.73425)">
	</g>
    <path transform="matrix(1 0 0 1 -136.0875 -234.73425)"  d="M940.26544 628.90674L944.57745 660.8527L947.3655 660.8527L948.2015 627.3427L940.26544 628.90674z" stroke="none" fill="#FFB6B6" fill-rule="nonzero" />
    <path d="M818.02496 331.83447C 818.02496 330.25134 817.4653 328.9001 816.3458 327.78064C 815.22644 326.6612 813.8751 326.10147 812.292 326.10147C 810.70886 326.10147 809.3576 326.6612 808.23816 327.78064C 807.1188 328.9001 806.5591 330.25134 806.559 331.83447C 806.5591 333.4176 807.1188 334.7689 808.23816 335.8883C 809.3576 337.00775 810.70886 337.56747 812.292 337.56747C 813.8751 337.56747 815.22644 337.00775 816.3458 335.8883C 817.4653 334.7689 818.02496 333.4176 818.02496 331.83447" stroke="none" fill="#FFB6B6" fill-rule="nonzero" />
	<g>
	</g>
	<g transform="matrix(1 0 0 1 -136.0875 -234.73425)">
	</g>
    <path transform="matrix(1 0 0 1 -136.0875 -234.73425)"  d="M958.8345 609.3707L961.2405 614.9957L958.8345 622.5647L958.8345 630.3987L949.62146 630.4537L949.42145 620.8197L948.18146 630.4537L938.8005 630.4537L937.06445 611.1437L939.5555 606.57367L958.8345 609.3707z" stroke="none" fill="#2F2E41" fill-rule="nonzero" />
	<g transform="matrix(1 0 0 1 -136.0875 -234.73425)">
	</g>
    <path transform="matrix(1 0 0 1 -136.0875 -234.73425)"  d="M946.53845 574.1787L945.8605 575.4347C 945.8605 575.4347 940.01447 576.57367 937.0605 579.7917L937.0605 579.7917L941.0255 587.89166L937.35345 611.3367L959.00146 609.8937L959.7695 591.84265L963.02747 579.21765C 963.02747 579.21765 957.3805 575.34467 954.9435 575.75165L954.9435 575.75165L954.09045 574.18365L946.53845 574.1787z" stroke="none" fill="#8D094E" fill-rule="nonzero" />
	<g transform="matrix(1 0 0 1 -136.0875 -234.73425)">
	</g>
    <path transform="matrix(1 0 0 1 -136.0875 -234.73425)"  d="M942.6225 580.63574L937.0585 579.7927C 937.0585 579.7927 935.53546 588.7277 935.5475 590.7677L935.5475 590.7677L942.2635 591.8387L942.6225 580.63574z" stroke="none" fill="#8D094E" fill-rule="nonzero" />
	<g transform="matrix(1 0 0 1 -136.0875 -234.73425)">
	</g>
    <path transform="matrix(1 0 0 1 -136.0875 -234.73425)"  d="M960.36847 579.78174L963.02747 579.21173C 963.02747 579.21173 964.05347 582.46674 965.7455 590.13275L965.7455 590.13275L958.8335 592.54474L960.36847 579.78174z" stroke="none" fill="#8D094E" fill-rule="nonzero" />
	<g transform="matrix(1 0 0 1 -136.0875 -234.73425)">
	</g>
    <path transform="matrix(1 0 0 1 -136.0875 -234.73425)"  d="M947.9075 662.9487L937.8945 662.9487L937.8945 662.8217C 937.8945 661.7874 938.30536 660.7954 939.0368 660.064C 939.7682 659.3326 940.7602 658.9217 941.7945 658.9217L941.7945 658.9217L947.9075 658.9217L947.9075 662.9487z" stroke="none" fill="#2F2E41" fill-rule="nonzero" />
	<g transform="matrix(1 0 0 1 -136.0875 -234.73425)">
	</g>
    <path transform="matrix(1 0 0 1 -136.0875 -234.73425)"  d="M959.9724 661.41675L950.0784 662.9487L950.05945 662.8237C 949.7321 660.6973 951.1886 658.70746 953.31445 658.3767L953.31445 658.3767L959.3575 657.44073L959.9724 661.41675z" stroke="none" fill="#2F2E41" fill-rule="nonzero" />
	<g transform="matrix(1 0 0 1 -136.0875 -234.73425)">
	</g>
    <path transform="matrix(1 0 0 1 -136.0875 -234.73425)"  d="M950.62744 568.89874C 950.18884 568.7438 949.73785 568.62634 949.2794 568.5477C 947.7139 568.189 946.69135 566.682 946.9364 565.0947C 946.9995 564.912 947.028 564.719 947.0204 564.52576C 946.9604 564.09973 946.46136 563.82574 945.9834 563.72577C 945.4975 563.67645 945.0152 563.5963 944.5394 563.4858C 943.8658 563.247 943.3764 562.6594 943.2634 561.9538C 943.1925 561.2804 943.36414 560.6038 943.74744 560.0458L943.74744 560.0458L943.9204 560.4798C 944.1766 560.2944 944.3727 560.0378 944.48444 559.7418C 944.8655 559.7873 945.19824 560.02094 945.3704 560.36383C 945.6474 560.50684 945.68744 559.91986 945.99445 559.8338C 946.12726 559.81866 946.2615 559.8474 946.37646 559.9158C 947.03864 560.07794 947.73376 560.0432 948.37646 559.8158C 949.52716 559.57666 950.7148 559.57666 951.8655 559.8158C 952.62164 559.9406 953.3323 560.2601 953.9275 560.7428C 954.3441 561.15295 954.6713 561.64496 954.8884 562.1878C 955.52594 563.4373 955.7957 564.84204 955.66644 566.23883C 955.491 567.39154 954.94855 568.457 954.11945 569.27686C 953.6774 569.72186 952.23645 571.27686 951.4465 571.0079C 950.45447 570.6737 951.7974 569.4387 950.62744 568.89874z" stroke="none" fill="#2F2E41" fill-rule="nonzero" />
	<g transform="matrix(1 0 0 1 -136.0875 -234.73425)">
	</g>
    <path transform="matrix(1 0 0 1 -136.0875 -234.73425)"  d="M877.4935 615.0788C 877.9889 614.7808 878.32684 614.2789 878.41656 613.7078C 878.5063 613.13684 878.3386 612.55536 877.95856 612.1198L877.95856 612.1198L880.49756 586.6438L876.25854 586.9248L875.08453 612.0108C 874.378 612.71326 874.30927 613.83344 874.9247 614.61694C 875.54016 615.40045 876.6448 615.599 877.4945 615.0788L877.4945 615.0788L877.4935 615.0788z" stroke="none" fill="#FEB8B8" fill-rule="nonzero" />
	<g transform="matrix(1 0 0 1 -136.0875 -234.73425)">
	</g>
    <path transform="matrix(1 0 0 1 -136.0875 -234.73425)"  d="M874.5405 585.69775L875.65155 594.1448L875.49756 599.3218L880.1606 599.7488L881.0946 595.44275L881.6096 584.0427C 881.69135 582.2583 880.3782 580.7149 878.60364 580.5097C 876.758 580.2943 875.0813 581.60046 874.8386 583.4427L874.8386 583.4427L874.5405 585.69775z" stroke="none" fill="#2F2E41" fill-rule="nonzero" />
	<g transform="matrix(1 0 0 1 -136.0875 -234.73425)">
	</g>
    <path transform="matrix(1 0 0 1 -136.0875 -234.73425)"  d="M892.3965 660.0218L895.2215 660.0218L896.56647 649.1128L892.39246 649.1128L892.3965 660.0218z" stroke="none" fill="#FEB8B8" fill-rule="nonzero" />
	<g transform="matrix(1 0 0 1 -136.0875 -234.73425)">
	</g>
    <path transform="matrix(1 0 0 1 -136.0875 -234.73425)"  d="M891.6755 662.7648L900.7955 662.7648L900.7955 662.6498C 900.7955 660.6896 899.20667 659.10034 897.24646 659.0998L897.24646 659.0998L891.67645 659.0998L891.6755 662.7648z" stroke="none" fill="#2F2E41" fill-rule="nonzero" />
	<g transform="matrix(1 0 0 1 -136.0875 -234.73425)">
	</g>
    <path transform="matrix(1 0 0 1 -136.0875 -234.73425)"  d="M869.0425 660.0218L871.8705 660.0218L873.2165 649.1128L869.0425 649.1128L869.0425 660.0218z" stroke="none" fill="#FEB8B8" fill-rule="nonzero" />
	<g transform="matrix(1 0 0 1 -136.0875 -234.73425)">
	</g>
    <path transform="matrix(1 0 0 1 -136.0875 -234.73425)"  d="M868.32056 662.7648L877.44055 662.7648L877.44055 662.6498C 877.4405 660.6896 875.8517 659.10034 873.89154 659.0998L873.89154 659.0998L868.32153 659.0998L868.32056 662.7648z" stroke="none" fill="#2F2E41" fill-rule="nonzero" />
    <path d="M750.085 335.6295C 750.0851 333.9362 749.4864 332.49088 748.289 331.29352C 747.0917 330.0962 745.64636 329.4975 743.953 329.4975C 742.2597 329.4975 740.81433 330.0962 739.617 331.29352C 738.4197 332.49088 737.82104 333.9362 737.821 335.6295C 737.82104 337.32278 738.4197 338.76813 739.617 339.96545C 740.81433 341.1628 742.2597 341.76147 743.953 341.76147C 745.64636 341.76147 747.0917 341.1628 748.289 339.96545C 749.4864 338.76813 750.0851 337.32278 750.085 335.6295" stroke="none" fill="#FEB8B8" fill-rule="nonzero" />
	<g>
	</g>
	<g transform="matrix(1 0 0 1 -136.0875 -234.73425)">
	</g>
    <path transform="matrix(1 0 0 1 -136.0875 -234.73425)"  d="M880.8335 578.98474L876.5785 579.47076C 874.4794 582.4478 873.9405 586.2529 875.1305 589.69574L875.1305 589.69574L878.3415 598.98474C 878.3415 598.98474 873.8845 607.9207 873.8845 616.21674C 873.8845 624.51276 865.3955 654.1267 865.3955 654.1267L865.3955 654.1267L877.3445 655.3727L882.5585 623.8257L889.74347 655.24567L897.9435 653.91064L893.42645 612.71063L890.44147 599.1516L890.3155 592.5486C 890.3155 592.5486 891.5845 587.5866 888.4085 584.4106L888.4085 584.4106L884.5305 579.01056L880.8335 578.98474z" stroke="none" fill="#2F2E41" fill-rule="nonzero" />
	<g transform="matrix(1 0 0 1 -136.0875 -234.73425)">
	</g>
    <path transform="matrix(1 0 0 1 -136.0875 -234.73425)"  d="M887.1885 568.17377L878.1745 568.17377L878.1745 564.2458C 880.1525 563.4598 882.0875 562.7918 883.2575 564.2458C 885.4269 564.2458 887.1855 566.0044 887.1855 568.17377L887.1855 568.17377L887.1885 568.17377z" stroke="none" fill="#2F2E41" fill-rule="nonzero" />
	<g transform="matrix(1 0 0 1 -136.0875 -234.73425)">
	</g>
    <path transform="matrix(1 0 0 1 -136.0875 -234.73425)"  d="M877.6835 563.5528C 872.29645 563.5528 870.78845 570.3048 870.78845 574.1138C 870.78845 576.2378 871.74945 576.99774 873.2584 577.25476L873.2584 577.25476L873.79144 574.41174L875.04047 577.37775C 875.4645 577.37775 875.91046 577.37177 876.37146 577.36273L876.37146 577.36273L876.79443 576.4907L877.7384 577.34674C 881.5194 577.3527 884.5764 577.90375 884.5764 574.1138C 884.57355 570.3058 883.2515 563.5528 877.6835 563.5528z" stroke="none" fill="#2F2E41" fill-rule="nonzero" />
	<g transform="matrix(1 0 0 1 -136.0875 -234.73425)">
	</g>
    <path transform="matrix(1 0 0 1 -136.0875 -234.73425)"  d="M885.6455 600.8478L885.87354 590.9568L886.4735 586.5658L887.9675 590.9158L885.6455 600.8478z" stroke="none" fill="#000000" fill-rule="nonzero" fill-opacity="0.2" />
	<g transform="matrix(1 0 0 1 -136.0875 -234.73425)">
	</g>
    <path transform="matrix(1 0 0 1 -136.0875 -234.73425)"  d="M875.31256 599.02856L875.3116 599.02856C 872.33844 599.0211 869.931 596.6111 869.9268 593.63794L869.9268 593.63794L869.9268 583.5149C 869.93414 580.5438 872.3405 578.137 875.3116 578.12915C 879.3254 578.13336 882.5783 581.38586 882.58307 585.39966L882.58307 585.39966L882.58307 591.75806C 882.57837 595.7715 879.326 599.02386 875.31256 599.02856z" stroke="none" fill="#8D094E" fill-rule="nonzero" />
	<g transform="matrix(1 0 0 1 -136.0875 -234.73425)">
	</g>
    <path transform="matrix(1 0 0 1 -136.0875 -234.73425)"  d="M887.31146 591.91077C 888.6629 590.1955 889.3763 588.0639 889.32947 585.88074C 889.32947 581.4907 886.7145 577.91974 883.5005 577.91974C 881.6202 578.014 879.9271 579.0879 879.04047 580.7487L879.04047 580.7487L879.5245 581.0487C 880.3098 579.55786 881.81824 578.58704 883.5005 578.4897C 886.4005 578.4897 888.7605 581.80566 888.7605 585.8827C 888.80774 587.93115 888.14215 589.9325 886.8775 591.5447L886.8775 591.5447L887.31146 591.91077z" stroke="none" fill="#8D094E" fill-rule="nonzero" />
	<g transform="matrix(1 0 0 1 -136.0875 -234.73425)">
	</g>
    <path transform="matrix(1 0 0 1 -136.0875 -234.73425)"  d="M884.54846 616.10675C 885.0727 615.75134 885.4126 615.182 885.47687 614.55194C 885.54114 613.9219 885.3231 613.2957 884.8815 612.84174L884.8815 612.84174L886.1445 584.81775L881.5235 585.37775L881.7295 612.89374C 880.9994 613.70435 880.9914 614.9331 881.7109 615.7532C 882.4304 616.57324 883.6497 616.7252 884.54846 616.10675z" stroke="none" fill="#FEB8B8" fill-rule="nonzero" />
	<g transform="matrix(1 0 0 1 -136.0875 -234.73425)">
	</g>
    <path transform="matrix(1 0 0 1 -136.0875 -234.73425)"  d="M879.57056 584.1398L881.2886 593.3158L881.42755 598.9888L886.5535 599.1788L887.3195 594.4128L887.2055 581.9128C 887.18756 579.95575 885.659 578.34595 883.7055 578.2268C 881.67365 578.1017 879.91724 579.6301 879.7605 581.6598L879.7605 581.6598L879.57056 584.1398z" stroke="none" fill="#2F2E41" fill-rule="nonzero" />
	<g transform="matrix(1 0 0 1 -136.0875 -234.73425)">
	</g>
    <path transform="matrix(1 0 0 1 -136.0875 -234.73425)"  d="M837.0965 638.08374L762.5105 638.08374L762.5105 640.48975L774.1425 640.48975L774.1425 663.34674L776.5485 663.34674L776.5485 640.48975L821.8545 640.48975L821.8545 663.34674L824.2605 663.34674L824.2605 640.48975L837.0955 640.48975L837.0965 638.08374z" stroke="none" fill="#3F3D56" fill-rule="nonzero" />
	<g>
	</g>
    <path d="M626.57 396.1515L701.156 396.1515L701.156 398.5575L626.57 398.5575z" stroke="none" fill="#3F3D56" fill-rule="nonzero" />
	<g>
	</g>
    <path d="M626.57 390.13647L701.156 390.13647L701.156 392.54248L626.57 392.54248z" stroke="none" fill="#3F3D56" fill-rule="nonzero" />
    <path d="M421.4731 371.23196C 421.47314 369.76343 420.95392 368.50998 419.91553 367.47156C 418.87714 366.43317 417.62366 365.914 416.15512 365.91397C 414.6866 365.914 413.43314 366.43317 412.3947 367.47156C 411.35632 368.50998 410.83713 369.76343 410.83713 371.23196C 410.83713 372.7005 411.35632 373.95398 412.3947 374.99237C 413.43314 376.03076 414.6866 376.54996 416.15512 376.54996C 417.62366 376.54996 418.87714 376.03076 419.91553 374.99237C 420.95392 373.95398 421.47314 372.7005 421.4731 371.23196" stroke="none" fill="#A0616A" fill-rule="nonzero" />
	<g>
	</g>
	<g transform="matrix(1 0 0 1 -136.0875 -234.73425)">
	</g>
    <path transform="matrix(1 0 0 1 -136.0875 -234.73425)"  d="M562.7795 660.1237L565.50146 660.1237L566.80145 649.6237L562.7795 649.6237L562.7795 660.1237z" stroke="none" fill="#A0616A" fill-rule="nonzero" />
	<g transform="matrix(1 0 0 1 -136.0875 -234.73425)">
	</g>
    <path transform="matrix(1 0 0 1 -136.0875 -234.73425)"  d="M562.0855 659.2357L567.44653 659.2357C 569.3333 659.2357 570.863 660.76495 570.8635 662.65173L570.8635 662.65173L570.8635 662.76276L562.0855 662.76276L562.0855 659.2357z" stroke="none" fill="#2F2E41" fill-rule="nonzero" />
	<g transform="matrix(1 0 0 1 -136.0875 -234.73425)">
	</g>
    <path transform="matrix(1 0 0 1 -136.0875 -234.73425)"  d="M552.2435 654.5427L550.03754 656.1427L542.8375 648.3947L546.0925 646.03973L552.2435 654.5427z" stroke="none" fill="#A0616A" fill-rule="nonzero" />
	<g transform="matrix(1 0 0 1 -136.0875 -234.73425)">
	</g>
    <path transform="matrix(1 0 0 1 -136.0875 -234.73425)"  d="M554.3515 656.2797L547.2395 661.4257L547.1745 661.3357C 546.0685 659.80695 546.41095 657.671 547.9395 656.5647L547.9395 656.5647L552.2835 653.4217L554.3515 656.2797z" stroke="none" fill="#2F2E41" fill-rule="nonzero" />
	<g transform="matrix(1 0 0 1 -136.0875 -234.73425)">
	</g>
    <path transform="matrix(1 0 0 1 -136.0875 -234.73425)"  d="M555.2215 613.72974C 553.43524 612.4853 551.0628 612.4853 549.2765 613.72974L549.2765 613.72974L547.13947 631.55774L553.5575 631.55774L554.5085 625.8577L556.64746 617.3007L555.2215 613.72974z" stroke="none" fill="#8D094E" fill-rule="nonzero" />
	<g transform="matrix(1 0 0 1 -136.0875 -234.73425)">
	</g>
    <path transform="matrix(1 0 0 1 -136.0875 -234.73425)"  d="M561.6515 641.2648L550.1325 637.5038L544.6415 641.8608L550.47546 650.7788L547.42444 654.7788L547.33746 654.67883C 546.95844 654.2478 538.06647 644.0858 538.09247 641.20386C 538.15845 639.24835 538.48883 637.3107 539.07446 635.44385L539.07446 635.44385L541.96344 631.3439L546.0634 630.1379L559.63544 632.0379L559.6574 632.0379L565.1414 635.3759C 566.242 636.0852 566.96027 637.2564 567.09344 638.5589C 567.3284 640.6779 567.8024 657.6509 567.80743 657.8219L567.80743 657.8219L567.80743 657.9329L561.89343 657.9329L561.6515 641.2648z" stroke="none" fill="#2F2E41" fill-rule="nonzero" />
	<g transform="matrix(1 0 0 1 -136.0875 -234.73425)">
	</g>
    <path transform="matrix(1 0 0 1 -136.0875 -234.73425)"  d="M554.3495 637.0047C 552.3495 636.1147 549.79047 632.6407 549.3695 632.0547C 548.54553 632.5027 542.5385 635.7137 540.8445 634.8887C 540.1094 635.2614 539.5499 635.9077 539.2865 636.68866L539.2865 636.68866L539.2365 636.93964L539.0915 636.72864C 539.0645 636.68964 536.4555 632.80963 539.8305 630.3986C 541.5955 629.27167 542.98517 627.645 543.8225 625.72565L543.8225 625.72565L542.1525 616.89966L542.19653 616.85864C 542.33356 616.7316 545.58453 613.74066 548.55054 613.38464L548.55054 613.38464L550.38055 613.06165L550.4606 620.02765L550.4606 628.9457C 551.9386 628.7597 554.2776 613.1777 554.2776 613.1777L554.2776 613.1777L555.4996 613.6257C 555.81555 613.68665 559.36456 614.3957 560.3066 615.8077L560.3066 615.8077L560.3376 615.8537L557.10956 624.5817L556.1656 626.00275L556.1656 627.8217L561.6816 632.6217L561.6036 632.7037C 561.4156 632.9037 557.3486 637.1307 554.97955 637.1297C 554.7631 637.1329 554.5484 637.09033 554.3495 637.0047z" stroke="none" fill="#3F3D56" fill-rule="nonzero" />
	<g transform="matrix(1 0 0 1 -136.0875 -234.73425)">
	</g>
    <path transform="matrix(1 0 0 1 -136.0875 -234.73425)"  d="M550.9045 638.5897C 550.98157 637.9784 551.3255 637.4327 551.84375 637.09937C 552.36194 636.76605 553.00116 636.6794 553.5895 636.86273L553.5895 636.86273L556.63745 633.20874L559.30945 634.5197L554.93243 639.6197C 554.5515 640.6104 553.48926 641.15906 552.4609 640.89636C 551.43256 640.63367 550.7636 639.64276 550.9044 638.5907L550.9044 638.5907L550.9045 638.5897z" stroke="none" fill="#A0616A" fill-rule="nonzero" />
	<g transform="matrix(1 0 0 1 -136.0875 -234.73425)">
	</g>
    <path transform="matrix(1 0 0 1 -136.0875 -234.73425)"  d="M553.0585 635.4917L557.84045 629.0367L556.65643 622.63666L558.5784 615.43066L558.6264 615.40967C 559.14954 615.182 559.7351 615.1417 560.2844 615.29565C 560.5737 615.41504 560.8 615.64996 560.90845 615.94366C 561.38446 617.1327 562.53143 629.24365 562.57947 629.7817C 562.4808 630.9297 562.23755 632.06067 561.85547 633.1477C 561.3785 634.1007 557.0315 638.9097 556.8475 639.1147L556.8475 639.1147L556.7715 639.19867L553.0585 635.4917z" stroke="none" fill="#3F3D56" fill-rule="nonzero" />
	<g transform="matrix(1 0 0 1 -136.0875 -234.73425)">
	</g>
    <path transform="matrix(1 0 0 1 -136.0875 -234.73425)"  d="M556.81146 604.5977C 555.04144 606.8237 552.0115 606.4157 549.58044 605.5977C 549.7215 607.37994 549.2374 609.15564 548.2114 610.6197C 548.5244 609.3567 547.2044 609.1057 546.4334 608.6357C 546.1334 608.2597 546.3834 607.6997 546.2614 607.23566C 544.87744 605.61365 543.9614 604.38965 545.7374 602.48566C 546.7774 601.0936 548.02545 599.3566 550.0064 599.7217C 551.5744 597.8927 554.1424 598.36865 555.8954 599.6477C 556.6835 600.2308 557.4004 600.9044 558.0314 601.6547C 557.8298 602.6418 557.4542 603.58514 556.92236 604.44073" stroke="none" fill="#2F2E41" fill-rule="nonzero" />
	<g transform="matrix(1 0 0 1 -136.0875 -234.73425)">
	</g>
    <path transform="matrix(1 0 0 1 -136.0875 -234.73425)"  d="M552.74646 640.14374C 552.6693 639.53253 552.3253 638.9868 551.8071 638.6535C 551.28894 638.3202 550.6497 638.2335 550.06146 638.41675L550.06146 638.41675L547.0135 634.76276L544.3415 636.0737L548.7185 641.1737C 549.0995 642.16437 550.16174 642.713 551.1901 642.4503C 552.21844 642.1876 552.8874 641.1967 552.7465 640.1447L552.7465 640.1447L552.74646 640.14374z" stroke="none" fill="#A0616A" fill-rule="nonzero" />
	<g transform="matrix(1 0 0 1 -136.0875 -234.73425)">
	</g>
    <path transform="matrix(1 0 0 1 -136.0875 -234.73425)"  d="M546.8365 639.4887C 546.5635 639.2887 540.15247 634.4647 539.43646 633.0327C 538.72046 631.6007 538.8965 627.3487 538.90643 627.1557C 539.3941 624.0902 540.0863 621.0608 540.97845 618.0877C 541.22675 617.43677 541.7235 616.9111 542.3594 616.62634C 542.9953 616.34155 543.7182 616.3211 544.3692 616.5694C 544.39545 616.5794 544.4215 616.58984 544.44745 616.6007L544.44745 616.6007L544.5214 616.63074L543.4484 629.14874L549.30145 636.9127L546.9175 639.5477L546.8365 639.4887z" stroke="none" fill="#3F3D56" fill-rule="nonzero" />
	<g transform="matrix(1 0 0 1 -136.0875 -234.73425)">
	</g>
    <path transform="matrix(1 0 0 1 -136.0875 -234.73425)"  d="M537.5512 368.47968L528.583 347.674L510.58142 347.99478L499.6614 368.73718L499.88177 369.01376L499.80322 369.01376L499.80322 412.15762L537.527 412.15762L537.527 369.0136L537.5512 368.47968z" stroke="none" fill="#F2F2F2" fill-rule="nonzero" />
	<g transform="matrix(1 0 0 1 -136.0875 -234.73425)">
	</g>
    <path transform="matrix(1 0 0 1 -136.0875 -234.73425)"  d="M817.91583 420.55667L810.6686 405.3489L796.12134 405.58337L787.29675 420.7449L787.47485 420.94708L787.4114 420.94708L787.4114 452.4828L817.8963 452.4828L817.8963 420.94693L817.91583 420.55667z" stroke="none" fill="#F2F2F2" fill-rule="nonzero" />
	<g>
	</g>
    <path d="M120.26837 103.85389L331.74005 103.85389L331.74005 105.85389L120.26837 105.85389z" stroke="none" fill="#FFFFFF" fill-rule="nonzero" />
	<g>
	</g>
    <path d="M99.26837 124.85389L310.74005 124.85389L310.74005 126.85389L99.26837 126.85389z" stroke="none" fill="#FFFFFF" fill-rule="nonzero" />
	<g>
	</g>
    <path d="M690.18365 128.64465L724.6536 128.64465L724.6536 130.64465L690.18365 130.64465z" stroke="none" fill="#FFFFFF" fill-rule="nonzero" />
	<g>
	</g>
    <path d="M690.1837 149.64464L724.6537 149.64464L724.6537 151.64464L690.1837 151.64464z" stroke="none" fill="#FFFFFF" fill-rule="nonzero" />
	<g>
	</g>
    <path d="M407.1336 64.64466L448.96368 64.64466L448.96368 66.64466L407.1336 66.64466z" stroke="none" fill="#FFFFFF" fill-rule="nonzero" />
	<g>
	</g>
    <path d="M407.1336 85.64466L448.96368 85.64466L448.96368 87.64466L407.1336 87.64466z" stroke="none" fill="#FFFFFF" fill-rule="nonzero" />
</g>
</svg>